<svg width="49" height="48" viewBox="0 0 49 48" fill="none" xmlns="http://www.w3.org/2000/svg">
<path d="M40.5 26C40.5 36 33.5 41 25.18 43.9C24.7443 44.0477 24.2711 44.0406 23.84 43.88C15.5 41 8.5 36 8.5 26V12C8.5 11.4696 8.71071 10.9609 9.08579 10.5858C9.46086 10.2107 9.96957 10 10.5 10C14.5 10 19.5 7.60001 22.98 4.56001C23.4037 4.19801 23.9427 3.99911 24.5 3.99911C25.0573 3.99911 25.5963 4.19801 26.02 4.56001C29.52 7.62001 34.5 10 38.5 10C39.0304 10 39.5391 10.2107 39.9142 10.5858C40.2893 10.9609 40.5 11.4696 40.5 12V26Z" stroke="#2563EB" stroke-width="2" stroke-linecap="round" stroke-linejoin="round"/>
</svg>
