<svg width="20" height="20" viewBox="0 0 20 20" fill="none" xmlns="http://www.w3.org/2000/svg">
<g clip-path="url(#clip0_40_42)">
<path d="M12.1133 18.0716C12.145 18.1505 12.2 18.2179 12.271 18.2646C12.3421 18.3113 12.4257 18.3352 12.5107 18.333C12.5957 18.3308 12.678 18.3027 12.7465 18.2524C12.815 18.2021 12.8666 18.1321 12.8941 18.0516L18.3108 2.2183C18.3375 2.14446 18.3426 2.06455 18.3255 1.98793C18.3084 1.9113 18.2698 1.84113 18.2143 1.78561C18.1588 1.7301 18.0886 1.69154 18.012 1.67446C17.9354 1.65737 17.8555 1.66246 17.7816 1.68913L1.94831 7.1058C1.86789 7.13338 1.79783 7.1849 1.74754 7.25344C1.69725 7.32199 1.66912 7.40428 1.66695 7.48926C1.66477 7.57425 1.68864 7.65787 1.73536 7.7289C1.78208 7.79993 1.84941 7.85497 1.92831 7.88663L8.53665 10.5366C8.74555 10.6203 8.93536 10.7453 9.09462 10.9043C9.25388 11.0633 9.3793 11.2529 9.46331 11.4616L12.1133 18.0716Z" stroke="#9CA3AF" stroke-width="2" stroke-linecap="round" stroke-linejoin="round"/>
<path d="M18.2116 1.78918L9.09497 10.905" stroke="#9CA3AF" stroke-width="2" stroke-linecap="round" stroke-linejoin="round"/>
</g>
<defs>
<clipPath id="clip0_40_42">
<rect width="20" height="20" fill="white"/>
</clipPath>
</defs>
</svg>
